<svg width="248" height="195" viewBox="0 0 248 195" fill="none" xmlns="http://www.w3.org/2000/svg">
<rect width="248" height="195" fill="#121212"/>
<path d="M179.771 111.022C177.89 111.022 176.331 110.639 175.095 109.873C173.859 109.1 172.99 108.008 172.488 106.596C171.993 105.177 171.91 103.499 172.236 101.561C172.555 99.6715 173.197 98.0131 174.162 96.5859C175.135 95.1586 176.355 94.0464 177.822 93.249C179.289 92.4517 180.923 92.053 182.725 92.053C183.937 92.053 185.034 92.2484 186.014 92.6391C187.003 93.0218 187.824 93.6038 188.478 94.3852C189.132 95.1586 189.578 96.1274 189.818 97.2915C190.065 98.4556 190.061 99.819 189.806 101.382L189.578 102.781H174.078L174.569 99.6237H185.285C185.404 98.8901 185.357 98.2403 185.141 97.6742C184.926 97.1081 184.567 96.6656 184.065 96.3467C183.563 96.0198 182.945 95.8563 182.211 95.8563C181.462 95.8563 180.76 96.0397 180.106 96.4065C179.452 96.7732 178.902 97.2556 178.456 97.8536C178.017 98.4436 177.734 99.0855 177.606 99.7792L177.044 102.913C176.885 103.877 176.917 104.679 177.14 105.317C177.371 105.954 177.77 106.433 178.336 106.752C178.902 107.063 179.62 107.218 180.489 107.218C181.055 107.218 181.585 107.139 182.08 106.979C182.582 106.82 183.028 106.584 183.419 106.273C183.81 105.954 184.129 105.56 184.376 105.089L189.028 105.4C188.598 106.533 187.944 107.521 187.067 108.366C186.19 109.204 185.133 109.857 183.897 110.328C182.67 110.79 181.294 111.022 179.771 111.022Z" fill="#FAFAFA"/>
<path d="M172.734 92.2923L172.1 96.1194H161.025L161.671 92.2923H172.734ZM164.9 87.891H169.995L167.149 105.018C167.069 105.488 167.081 105.855 167.185 106.118C167.288 106.373 167.46 106.552 167.699 106.656C167.946 106.76 168.241 106.812 168.584 106.812C168.823 106.812 169.066 106.792 169.314 106.752C169.561 106.704 169.748 106.668 169.876 106.644L170.067 110.435C169.78 110.523 169.393 110.619 168.907 110.723C168.429 110.826 167.863 110.89 167.209 110.914C165.965 110.962 164.912 110.798 164.051 110.424C163.19 110.041 162.572 109.455 162.197 108.665C161.823 107.876 161.743 106.883 161.958 105.687L164.9 87.891Z" fill="#FAFAFA"/>
<path d="M146.902 111.01C145.738 111.01 144.73 110.806 143.876 110.4C143.031 109.985 142.409 109.371 142.011 108.558C141.612 107.744 141.512 106.736 141.712 105.532C141.887 104.511 142.218 103.658 142.704 102.972C143.199 102.279 143.801 101.721 144.51 101.298C145.22 100.875 146.005 100.553 146.866 100.329C147.736 100.106 148.633 99.9546 149.557 99.8748C150.626 99.7632 151.495 99.6556 152.165 99.5519C152.843 99.4483 153.349 99.3008 153.684 99.1094C154.019 98.9101 154.222 98.6151 154.294 98.2244V98.1526C154.413 97.4031 154.274 96.8211 153.875 96.4065C153.484 95.9839 152.858 95.7726 151.997 95.7726C151.088 95.7726 150.315 95.9719 149.677 96.3706C149.047 96.7692 148.597 97.2756 148.326 97.8895L143.685 97.5068C144.1 96.3905 144.726 95.4257 145.563 94.6125C146.408 93.7912 147.425 93.1613 148.613 92.7228C149.801 92.2763 151.132 92.053 152.607 92.053C153.628 92.053 154.581 92.1726 155.466 92.4118C156.359 92.651 157.128 93.0218 157.774 93.5241C158.428 94.0264 158.898 94.6723 159.185 95.4616C159.48 96.243 159.54 97.1799 159.365 98.2722L157.296 110.663H152.464L152.894 108.115H152.751C152.36 108.689 151.882 109.196 151.316 109.634C150.75 110.065 150.1 110.404 149.366 110.651C148.633 110.89 147.811 111.01 146.902 111.01ZM148.948 107.493C149.689 107.493 150.371 107.346 150.993 107.051C151.623 106.748 152.141 106.341 152.547 105.831C152.962 105.321 153.225 104.743 153.337 104.097L153.648 102.147C153.488 102.251 153.257 102.343 152.954 102.422C152.659 102.502 152.336 102.578 151.985 102.65C151.643 102.713 151.296 102.773 150.945 102.829C150.594 102.877 150.279 102.925 150 102.972C149.386 103.06 148.836 103.2 148.35 103.391C147.863 103.582 147.468 103.842 147.165 104.168C146.863 104.487 146.675 104.886 146.603 105.364C146.492 106.058 146.655 106.588 147.094 106.955C147.54 107.314 148.158 107.493 148.948 107.493Z" fill="#FAFAFA"/>
<path d="M129.804 110.663L132.866 92.2922H137.805L137.267 95.4975H137.459C137.985 94.3573 138.69 93.4962 139.576 92.9142C140.469 92.3241 141.429 92.0291 142.458 92.0291C142.713 92.0291 142.98 92.0451 143.259 92.077C143.546 92.1009 143.801 92.1407 144.025 92.1966L143.259 96.7294C143.036 96.6496 142.717 96.5859 142.302 96.538C141.896 96.4822 141.509 96.4543 141.142 96.4543C140.401 96.4543 139.711 96.6177 139.073 96.9447C138.435 97.2636 137.897 97.7101 137.459 98.2842C137.028 98.8582 136.745 99.52 136.609 100.27L134.899 110.663H129.804Z" fill="#FAFAFA"/>
<path d="M123.285 102.841L125.043 92.2922H130.138L127.076 110.663H122.184L122.734 107.326H122.543C121.977 108.402 121.152 109.267 120.067 109.921C118.983 110.575 117.751 110.902 116.372 110.902C115.144 110.902 114.107 110.623 113.262 110.065C112.425 109.507 111.831 108.713 111.48 107.685C111.129 106.656 111.069 105.424 111.301 103.989L113.262 92.2922H118.357L116.563 103.08C116.396 104.164 116.547 105.022 117.018 105.651C117.488 106.281 118.206 106.596 119.17 106.596C119.784 106.596 120.378 106.457 120.952 106.178C121.534 105.891 122.037 105.468 122.459 104.91C122.882 104.352 123.157 103.662 123.285 102.841Z" fill="#FAFAFA"/>
<path d="M100.033 111.022C98.1436 111.022 96.5888 110.623 95.3689 109.826C94.1569 109.02 93.3078 107.904 92.8214 106.477C92.343 105.05 92.2593 103.407 92.5702 101.549C92.8732 99.6675 93.5071 98.0171 94.4719 96.5978C95.4366 95.1706 96.6605 94.0583 98.1436 93.261C99.6346 92.4557 101.309 92.053 103.167 92.053C104.769 92.053 106.125 92.3441 107.233 92.9261C108.341 93.5082 109.155 94.3254 109.673 95.3779C110.191 96.4304 110.367 97.6662 110.199 99.0855H105.403C105.411 98.1765 105.176 97.439 104.698 96.8729C104.219 96.3068 103.518 96.0237 102.593 96.0237C101.795 96.0237 101.062 96.239 100.392 96.6696C99.7303 97.0922 99.1682 97.7101 98.7057 98.5234C98.2512 99.3366 97.9323 100.321 97.7489 101.477C97.5575 102.65 97.5536 103.646 97.7369 104.467C97.9203 105.289 98.2712 105.915 98.7894 106.345C99.3077 106.776 99.9615 106.991 100.751 106.991C101.341 106.991 101.887 106.871 102.389 106.632C102.9 106.393 103.346 106.046 103.729 105.592C104.112 105.129 104.407 104.575 104.614 103.929H109.422C109.095 105.341 108.501 106.576 107.64 107.637C106.787 108.697 105.714 109.527 104.423 110.125C103.131 110.723 101.668 111.022 100.033 111.022Z" fill="#FAFAFA"/>
<rect x="58" y="84" width="28.0661" height="28.066" rx="14.033" fill="white"/>
<path d="M69.2256 105.049L71.4393 91.0165H74.8597L72.6365 105.049H69.2256ZM65.0166 99.8069L65.5962 96.259H79.0497L78.4701 99.8069H65.0166Z" fill="#08090C"/>
</svg>
