<svg width="248" height="195" viewBox="0 0 248 195" fill="none" xmlns="http://www.w3.org/2000/svg">
<rect width="248" height="195" fill="#121212"/>
<path d="M151.625 72.5H142.25V69.375C142.25 67.6562 140.844 66.25 139.125 66.25H107.875C106.156 66.25 104.75 67.6562 104.75 69.375V72.5H95.375C93.6562 72.5 92.25 73.9062 92.25 75.625V85C92.25 98.4062 97.8437 106.5 107.281 106.844C108.658 109.234 110.545 111.292 112.809 112.869C115.072 114.446 117.656 115.505 120.375 115.969V122.5H111V128.75H136V122.5H126.625V115.969C129.346 115.509 131.931 114.452 134.195 112.874C136.459 111.297 138.345 109.237 139.719 106.844C149.125 106.5 154.75 98.4062 154.75 85V75.625C154.75 73.9062 153.344 72.5 151.625 72.5ZM98.5 85V78.75H104.75V97.5C104.75 98.375 104.844 99.25 104.937 100.094C99.1875 97.875 98.5 89.0937 98.5 85ZM136 97.5C136 104.406 130.406 110 123.5 110C116.594 110 111 104.406 111 97.5V72.5H136V97.5ZM148.5 85C148.5 89.0937 147.813 97.875 142.063 100.094C142.188 99.25 142.25 98.375 142.25 97.5V78.75H148.5V85Z" fill="white"/>
</svg>
