<svg width="248" height="195" viewBox="0 0 248 195" fill="none" xmlns="http://www.w3.org/2000/svg">
<rect width="248" height="195" fill="#121212"/>
<path d="M145.375 66.25H114.125C110.678 66.25 107.875 69.0531 107.875 72.5V89.9563L93.1656 104.666C92.7287 105.103 92.4311 105.659 92.3106 106.266C92.1901 106.872 92.252 107.5 92.4885 108.071C92.7249 108.642 93.1254 109.13 93.6391 109.473C94.1529 109.817 94.757 110 95.3749 110V125.625C95.3749 126.454 95.7042 127.249 96.2902 127.835C96.8763 128.421 97.6711 128.75 98.4999 128.75H148.5C149.329 128.75 150.124 128.421 150.71 127.835C151.296 127.249 151.625 126.454 151.625 125.625V72.5C151.625 69.0531 148.822 66.25 145.375 66.25ZM120.375 122.5H101.625V105.044L111 95.6687L120.375 105.044V122.5ZM145.375 122.5H126.625V110C127.244 110.001 127.849 109.819 128.363 109.476C128.878 109.133 129.279 108.644 129.516 108.073C129.753 107.501 129.814 106.872 129.693 106.266C129.572 105.659 129.273 105.102 128.834 104.666L114.125 89.9563V72.5H145.375V122.5Z" fill="white"/>
<path d="M120.375 78.75H126.625V85H120.375V78.75ZM132.875 78.75H139.125V85H132.875V78.75ZM132.875 91.3469H139.125V97.5H132.875V91.3469ZM132.875 103.75H139.125V110H132.875V103.75ZM107.875 106.875H114.125V113.125H107.875V106.875Z" fill="white"/>
</svg>
